<svg width="2021" height="896" viewBox="0 0 2021 896" fill="none" xmlns="http://www.w3.org/2000/svg">
<g clip-path="url(#clip0_11_107)">
<path d="M1640.1 -740.919C1519.68 -717.364 2240.11 -589.284 2171.28 -459.082C2120.67 -363.361 2164.28 -326.399 1895.78 -194.114C1806.78 -86.9726 1021.78 -116.155 357.275 275.07C-175.387 588.675 169.63 1115.01 329.775 1295.53L2335.77 1455.04C1562.27 972.503 1150.85 659.048 1203.77 425.624C1251.58 214.798 1733.78 -59.1463 2318.78 -194.114C2938.95 -570.83 1291.42 -449.362 1251.58 -529.433C1190.22 -652.714 1288.12 -650.974 1383.66 -679.229L1640.1 -740.919Z" fill="#9E3039"/>
</g>
<path d="M406.649 653.413H279.449C231.449 653.413 196.649 644.213 175.049 625.813C153.849 607.013 143.249 576.613 143.249 534.613V226.213H226.649V534.613C226.649 551.413 230.449 563.013 238.049 569.413C245.649 575.813 259.449 579.013 279.449 579.013H406.649V653.413ZM562.532 653.413H479.132V226.213H562.532V653.413ZM945.745 300.613H831.145V653.413H747.745V300.613H633.745V226.213H945.745V300.613ZM1100.12 653.413H1016.72V226.213H1100.12V653.413ZM1529.53 653.413H1442.53L1418.53 579.613H1275.13L1251.73 653.413H1164.73L1301.53 262.213C1307.53 248.613 1314.13 239.213 1321.33 234.013C1328.93 228.813 1338.13 226.213 1348.93 226.213C1359.73 226.213 1368.33 228.613 1374.73 233.413C1381.53 238.213 1387.53 247.813 1392.73 262.213L1529.53 653.413ZM1399.33 509.413L1348.93 340.213L1296.13 509.413H1399.33ZM1918.15 653.413H1831.15L1807.15 579.613H1663.75L1640.35 653.413H1553.35L1690.15 262.213C1696.15 248.613 1702.75 239.213 1709.95 234.013C1717.55 228.813 1726.75 226.213 1737.55 226.213C1748.35 226.213 1756.95 228.613 1763.35 233.413C1770.15 238.213 1776.15 247.813 1781.35 262.213L1918.15 653.413ZM1787.95 509.413L1737.55 340.213L1684.75 509.413H1787.95Z" fill="white"/>
<defs>
<clipPath id="clip0_11_107">
<rect width="2021" height="896" fill="white"/>
</clipPath>
</defs>
</svg>
