<svg width="1941" height="896" viewBox="0 0 1941 896" fill="none" xmlns="http://www.w3.org/2000/svg">
<g clip-path="url(#clip0_22_9)">
<path d="M1625.59 -651.919C1505.17 -628.364 2225.6 -500.284 2156.77 -370.082C2106.16 -274.361 2149.77 -237.399 1881.27 -105.114C1792.27 2.0274 979.77 -60.7249 315.269 330.5C-217.393 644.105 155.124 1204.01 315.269 1384.53L2321.27 1544.04C1547.77 1061.5 1136.34 748.048 1189.27 514.624C1237.07 303.798 1719.27 29.8537 2304.27 -105.114C2924.45 -481.83 1276.92 -360.362 1237.07 -440.433C1175.72 -563.714 1273.61 -561.974 1369.15 -590.229L1625.59 -651.919Z" fill="#343A40"/>
</g>
<path d="M377.928 647H229.528C173.528 647 132.928 636.267 107.728 614.8C82.9947 592.867 70.6281 557.4 70.6281 508.4V148.6H167.928V508.4C167.928 528 172.361 541.533 181.228 549C190.095 556.467 206.195 560.2 229.528 560.2H377.928V647ZM537.591 647H454.191V219.8H537.591V647ZM1504.59 647H1417.59L1393.59 573.2H1250.19L1226.79 647H1139.79L1276.59 255.8C1282.59 242.2 1289.19 232.8 1296.39 227.6C1303.99 222.4 1313.19 219.8 1323.99 219.8C1334.79 219.8 1343.39 222.2 1349.79 227C1356.59 231.8 1362.59 241.4 1367.79 255.8L1504.59 647ZM1374.39 503L1323.99 333.8L1271.19 503H1374.39ZM1893.21 647H1806.21L1782.21 573.2H1638.81L1615.41 647H1528.41L1665.21 255.8C1671.21 242.2 1677.81 232.8 1685.01 227.6C1692.61 222.4 1701.81 219.8 1712.61 219.8C1723.41 219.8 1732.01 222.2 1738.41 227C1745.21 231.8 1751.21 241.4 1756.41 255.8L1893.21 647ZM1763.01 503L1712.61 333.8L1659.81 503H1763.01Z" fill="#9E3039"/>
<path d="M920.804 294.2H806.204V647H722.804V294.2H608.804V219.8H920.804V294.2ZM1075.18 647H991.777V219.8H1075.18V647Z" fill="#DCDCDC"/>
<defs>
<clipPath id="clip0_22_9">
<rect width="1916" height="896" fill="white" transform="translate(25)"/>
</clipPath>
</defs>
</svg>
