<svg width="2109" height="738" viewBox="0 0 2109 738" fill="none" xmlns="http://www.w3.org/2000/svg">
<g clip-path="url(#clip0_11_121)">
<path d="M1159.6 -185C1059.67 -168.04 795.74 -124.209 762.78 -59.7497C738.544 -12.3607 1120.92 31.0334 933.465 86.3748C701.474 154.862 389.09 191.757 127.005 298.595C-287.59 467.619 884.719 722.754 1061.47 799.585L2345.83 805C1572.73 616.589 361.043 422.379 626.279 322.937C892.5 223.132 940.455 210.509 1185.26 110.717C1363.59 38.0158 916.485 -31.1114 865.23 -66.7196C786.315 -121.543 871.88 -125.531 949.18 -143.474L1159.6 -185Z" fill="#454545"/>
</g>
<path d="M417.049 572H289.849C241.849 572 207.049 562.8 185.449 544.4C164.249 525.6 153.649 495.2 153.649 453.2V144.8H237.049V453.2C237.049 470 240.849 481.6 248.449 488C256.049 494.4 269.849 497.6 289.849 497.6H417.049V572ZM572.932 572H489.532V144.8H572.932V572ZM956.144 219.2H841.545V572H758.144V219.2H644.144V144.8H956.144V219.2ZM1110.52 572H1027.12V144.8H1110.52V572ZM1539.93 572H1452.93L1428.93 498.2H1285.53L1262.13 572H1175.13L1311.93 180.8C1317.93 167.2 1324.53 157.8 1331.73 152.6C1339.33 147.4 1348.53 144.8 1359.33 144.8C1370.13 144.8 1378.73 147.2 1385.13 152C1391.93 156.8 1397.93 166.4 1403.13 180.8L1539.93 572ZM1409.73 428L1359.33 258.8L1306.53 428H1409.73ZM1928.55 572H1841.55L1817.55 498.2H1674.15L1650.75 572H1563.75L1700.55 180.8C1706.55 167.2 1713.15 157.8 1720.35 152.6C1727.95 147.4 1737.15 144.8 1747.95 144.8C1758.75 144.8 1767.35 147.2 1773.75 152C1780.55 156.8 1786.55 166.4 1791.75 180.8L1928.55 572ZM1798.35 428L1747.95 258.8L1695.15 428H1798.35Z" fill="#DCDCDC"/>
<defs>
<clipPath id="clip0_11_121">
<rect width="2109" height="738" fill="white"/>
</clipPath>
</defs>
</svg>
