<svg width="2021" height="896" viewBox="0 0 2021 896" fill="none" xmlns="http://www.w3.org/2000/svg">
<g clip-path="url(#clip0_13_132)">
<path d="M1636.59 -740.919C1516.17 -717.364 2236.6 -589.284 2167.77 -459.082C2117.16 -363.361 2160.77 -326.399 1892.27 -194.114C1803.27 -86.9726 1018.27 -116.155 353.768 275.07C-178.894 588.675 166.124 1115.01 326.269 1295.53L2332.27 1455.04C1558.77 972.503 1147.34 659.048 1200.27 425.624C1248.07 214.798 1730.27 -59.1463 2315.27 -194.114C2935.45 -570.83 1287.92 -449.362 1248.07 -529.433C1186.72 -652.714 1284.62 -650.974 1380.15 -679.229L1636.59 -740.919Z" fill="#454545"/>
</g>
<path d="M406.649 653.413H279.449C231.449 653.413 196.649 644.213 175.049 625.813C153.849 607.013 143.249 576.613 143.249 534.613V226.213H226.649V534.613C226.649 551.413 230.449 563.013 238.049 569.413C245.649 575.813 259.449 579.013 279.449 579.013H406.649V653.413ZM562.532 653.413H479.132V226.213H562.532V653.413ZM945.745 300.613H831.145V653.413H747.745V300.613H633.745V226.213H945.745V300.613ZM1100.12 653.413H1016.72V226.213H1100.12V653.413ZM1529.53 653.413H1442.53L1418.53 579.613H1275.13L1251.73 653.413H1164.73L1301.53 262.213C1307.53 248.613 1314.13 239.213 1321.33 234.013C1328.93 228.813 1338.13 226.213 1348.93 226.213C1359.73 226.213 1368.33 228.613 1374.73 233.413C1381.53 238.213 1387.53 247.813 1392.73 262.213L1529.53 653.413ZM1399.33 509.413L1348.93 340.213L1296.13 509.413H1399.33ZM1918.15 653.413H1831.15L1807.15 579.613H1663.75L1640.35 653.413H1553.35L1690.15 262.213C1696.15 248.613 1702.75 239.213 1709.95 234.013C1717.55 228.813 1726.75 226.213 1737.55 226.213C1748.35 226.213 1756.95 228.613 1763.35 233.413C1770.15 238.213 1776.15 247.813 1781.35 262.213L1918.15 653.413ZM1787.95 509.413L1737.55 340.213L1684.75 509.413H1787.95Z" fill="#E7E7E7"/>
<defs>
<clipPath id="clip0_13_132">
<rect width="2021" height="896" fill="white"/>
</clipPath>
</defs>
</svg>
