<svg width="2021" height="896" viewBox="0 0 2021 896" fill="none" xmlns="http://www.w3.org/2000/svg">
<g clip-path="url(#clip0_13_138)">
<path d="M1609.59 -740.919C1489.17 -717.364 2209.6 -589.284 2140.77 -459.082C2090.16 -363.361 2133.77 -326.399 1865.27 -194.114C1776.27 -86.9726 991.269 -116.155 326.768 275.07C-205.894 588.675 139.124 1115.01 299.269 1295.53L2305.27 1455.04C1531.77 972.503 1120.34 659.048 1173.27 425.624C1221.07 214.798 1703.27 -59.1463 2288.27 -194.114C2908.45 -570.83 1260.92 -449.362 1221.07 -529.433C1159.72 -652.714 1257.62 -650.974 1353.15 -679.229L1609.59 -740.919Z" fill="#454545"/>
</g>
<path d="M432.41 653.413H305.21C257.21 653.413 222.41 644.213 200.81 625.813C179.61 607.013 169.01 576.613 169.01 534.613V226.213H252.41V534.613C252.41 551.413 256.21 563.013 263.81 569.413C271.41 575.813 285.21 579.013 305.21 579.013H432.41V653.413ZM588.293 653.413H504.893V226.213H588.293V653.413ZM971.505 300.613H856.905V653.413H773.505V300.613H659.505V226.213H971.505V300.613ZM1125.88 653.413H1042.48V226.213H1125.88V653.413ZM1555.29 653.413H1468.29L1444.29 579.613H1300.89L1277.49 653.413H1190.49L1327.29 262.213C1333.29 248.613 1339.89 239.213 1347.09 234.013C1354.69 228.813 1363.89 226.213 1374.69 226.213C1385.49 226.213 1394.09 228.613 1400.49 233.413C1407.29 238.213 1413.29 247.813 1418.49 262.213L1555.29 653.413ZM1425.09 509.413L1374.69 340.213L1321.89 509.413H1425.09ZM1943.91 653.413H1856.91L1832.91 579.613H1689.51L1666.11 653.413H1579.11L1715.91 262.213C1721.91 248.613 1728.51 239.213 1735.71 234.013C1743.31 228.813 1752.51 226.213 1763.31 226.213C1774.11 226.213 1782.71 228.613 1789.11 233.413C1795.91 238.213 1801.91 247.813 1807.11 262.213L1943.91 653.413ZM1813.71 509.413L1763.31 340.213L1710.51 509.413H1813.71Z" fill="#9E3039"/>
<defs>
<clipPath id="clip0_13_138">
<rect width="1968.51" height="896" fill="white"/>
</clipPath>
</defs>
</svg>
