<svg width="2713" height="44" viewBox="0 0 2713 44" fill="none" xmlns="http://www.w3.org/2000/svg">
<rect x="1379" y="14.9033" width="14.9032" height="222.77" transform="rotate(-90 1379 14.9033)" fill="white"/>
<rect x="1656.74" y="14.9033" width="14.9032" height="222.77" transform="rotate(-90 1656.74 14.9033)" fill="white"/>
<rect x="2212.23" y="14.9033" width="14.9032" height="222.77" transform="rotate(-90 2212.23 14.9033)" fill="white"/>
<rect x="2490" y="14.9033" width="14.9032" height="222.77" transform="rotate(-90 2490 14.9033)" fill="white"/>
<rect x="1934.49" y="14.9033" width="14.9032" height="222.77" transform="rotate(-90 1934.49 14.9033)" fill="white"/>
<rect x="1334" y="44" width="15" height="1379" transform="rotate(-90 1334 44)" fill="white"/>
<rect y="14.9033" width="14.9032" height="222.77" transform="rotate(-90 0 14.9033)" fill="white"/>
<rect x="277.743" y="14.9033" width="14.9032" height="222.77" transform="rotate(-90 277.743 14.9033)" fill="white"/>
<rect x="833.23" y="14.9033" width="14.9032" height="222.77" transform="rotate(-90 833.23 14.9033)" fill="white"/>
<rect x="1111" y="14.9033" width="14.9032" height="222.77" transform="rotate(-90 1111 14.9033)" fill="white"/>
<rect x="555.487" y="14.9033" width="14.9032" height="222.77" transform="rotate(-90 555.487 14.9033)" fill="white"/>
<rect y="44" width="15" height="1334" transform="rotate(-90 0 44)" fill="white"/>
</svg>
