<svg width="1388" height="435" viewBox="0 0 1388 435" fill="none" xmlns="http://www.w3.org/2000/svg">
<g clip-path="url(#clip0_21_2)">
<path d="M712.978 -70C649.687 -60.8538 482.525 -37.2165 461.65 -2.45518C446.3 23.1007 688.48 46.5022 569.754 76.3466C422.822 113.28 224.973 133.177 58.9817 190.792C-203.602 281.943 538.88 419.532 650.824 460.965L1464.28 463.886C974.635 362.28 207.21 257.547 375.197 203.919C543.808 150.097 574.18 143.29 729.228 89.4738C842.175 50.2676 558.999 12.9888 526.537 -6.21391C476.556 -35.779 678.189 -59.7796 727.147 -69.4561L712.978 -70Z" fill="#CA7979" fill-opacity="0.06"/>
<path d="M718.653 -69.3345C697.43 -66.3254 676.229 -63.1264 655.069 -59.6412C629.214 -55.3831 603.406 -50.751 577.762 -45.191C565.996 -42.6396 554.261 -39.8923 542.62 -36.7256C533.118 -34.141 523.649 -31.3214 514.421 -27.7161C510.888 -26.3361 507.385 -24.8345 503.991 -23.0644C501.41 -21.7205 498.86 -20.224 496.557 -18.3193C494.962 -17.0161 493.408 -15.4446 492.523 -13.3789C492.181 -12.5716 491.977 -11.6804 491.98 -10.7644C491.99 -9.8438 492.21 -8.94721 492.581 -8.14204C492.954 -7.35244 493.5 -6.73017 494.055 -6.21306C494.841 -5.46718 495.701 -4.84319 496.567 -4.27565C499.085 -2.62347 501.771 -1.32831 504.455 -0.117088C508.153 1.55416 511.918 3.03647 515.696 4.44962C520.328 6.18239 524.994 7.80287 529.671 9.37305C540.818 13.1151 552.041 16.5817 563.266 20.0127C575.539 23.7638 587.827 27.4506 600.087 31.2263C611.755 34.8199 623.403 38.4764 634.955 42.4258C644.322 45.6287 653.643 48.9513 662.665 53.009C665.923 54.4755 669.132 56.0245 672.173 57.8551C674.265 59.1277 676.292 60.4306 677.817 62.1764C678.31 62.751 678.738 63.3216 678.953 63.9217C679.11 64.3652 679.184 64.8284 679.084 65.192C679.013 65.6179 678.699 66.054 678.319 66.4766C677.757 67.0752 677.009 67.5423 676.198 67.9843C675.321 68.4546 674.357 68.828 673.358 69.2177C671.769 69.8331 670.156 70.3986 668.53 70.9531C663.585 72.6392 658.59 74.1852 653.582 75.7105C637.804 80.5151 621.938 85.0071 606.059 89.4658C560.072 102.38 513.955 114.781 467.829 127.14C419.837 139.999 371.813 152.734 323.801 165.501C305.538 170.357 287.273 175.214 269.018 180.119C258.031 183.07 247.023 185.994 236.05 189.13C229.139 191.103 222.246 193.377 215.558 196.347C210.811 198.444 206.068 200.933 201.79 204.35C200.19 205.628 198.651 207.08 197.277 208.761C196.127 210.163 195.108 211.763 194.343 213.56C193.662 215.171 193.234 216.922 193.118 218.732C193.013 220.543 193.219 222.33 193.675 224.013C194.796 228.023 196.99 231.387 199.419 234.179C202.721 238.038 206.528 241.238 210.416 244.099C215.495 247.85 220.83 251.118 226.234 254.139C232.885 257.86 239.688 261.224 246.547 264.389C263.795 272.347 281.464 279.14 299.222 285.484C321.126 293.31 343.243 300.401 365.438 307.124C418.602 323.228 472.275 337.287 526.076 350.596C585.027 365.179 644.187 378.75 703.437 391.792C759.685 404.173 816.024 416.053 872.417 427.647C917.55 436.926 962.713 445.995 1007.87 455.084C1023.64 458.258 1039.4 461.43 1055.14 464.68C1060.86 465.862 1066.58 467.053 1072.28 468.277C1076.38 469.159 1080.47 470.048 1084.52 471L1086.53 461.144C1082.38 460.193 1078.24 459.313 1074.11 458.451C1068.37 457.25 1062.63 456.085 1056.89 454.932C1041.1 451.76 1025.31 448.67 1009.53 445.581C964.328 436.734 919.134 427.91 873.982 418.877C817.566 407.591 761.206 396.02 704.935 383.95C645.663 371.235 586.493 357.995 527.546 343.745C473.742 330.737 420.105 316.992 366.994 301.213C344.823 294.625 322.757 287.68 300.924 280.008C283.216 273.784 265.656 267.143 248.568 259.364C241.776 256.272 235.072 253.002 228.551 249.396C223.247 246.461 218.071 243.335 213.21 239.775C209.481 237.036 205.939 234.117 203.004 230.689C200.885 228.167 199.036 225.498 198.289 222.595C197.973 221.42 197.819 220.214 197.891 219.056C197.951 217.901 198.237 216.732 198.691 215.63C199.201 214.378 199.965 213.189 200.861 212.065C201.943 210.714 203.234 209.496 204.63 208.357C208.397 205.281 212.793 202.974 217.348 200.906C223.748 198.017 230.439 195.776 237.23 193.792C248.136 190.612 259.11 187.635 270.089 184.623C288.314 179.622 306.553 174.668 324.793 169.713C372.748 156.689 420.714 143.697 468.651 130.579C514.724 117.971 560.792 105.319 606.739 92.1543C622.602 87.6091 638.463 83.027 654.246 78.1297C659.254 76.5758 664.264 74.9953 669.241 73.2694C670.876 72.7025 672.515 72.118 674.143 71.4772C675.146 71.0852 676.188 70.6698 677.215 70.1185C678.134 69.6326 679.068 69.0181 679.888 68.1707C680.494 67.5615 681.006 66.7396 681.251 65.7316C681.441 64.7771 681.328 63.8364 681.004 63.0276C680.609 62.0432 680.031 61.2347 679.419 60.5663C677.595 58.5465 675.391 57.1137 673.238 55.8483C670.076 53.9708 666.788 52.4014 663.487 50.9396C654.348 46.8887 644.956 43.5947 635.559 40.439C623.957 36.5415 612.276 32.9421 600.585 29.41C588.3 25.6979 575.994 22.0769 563.708 18.3931C552.469 15.0235 541.244 11.6212 530.1 7.94603C525.425 6.40388 520.765 4.81334 516.144 3.11234C512.373 1.72411 508.627 0.272504 504.958 -1.36294C502.288 -2.5547 499.653 -3.80452 497.218 -5.38822C496.381 -5.93359 495.577 -6.50755 494.87 -7.17635C494.372 -7.65753 493.917 -8.14544 493.669 -8.70483C493.368 -9.35833 493.184 -10.0704 493.179 -10.775C493.174 -11.4796 493.332 -12.1956 493.608 -12.8674C494.327 -14.6449 495.758 -16.0687 497.273 -17.3542C499.469 -19.1954 501.948 -20.6625 504.489 -22.0074C507.826 -23.7713 511.289 -25.276 514.794 -26.6676C523.953 -30.3028 533.379 -33.1633 542.856 -35.796C554.463 -39.0198 566.171 -41.827 577.918 -44.44C603.518 -50.1344 629.298 -54.9032 655.13 -59.2996C676.271 -62.8977 697.456 -66.2104 718.664 -69.3332L718.653 -69.3345Z" fill="#F9F7FB"/>
</g>
<defs>
<clipPath id="clip0_21_2">
<rect width="1388" height="435" fill="white"/>
</clipPath>
</defs>
</svg>
